<svg width="1500" height="1500" viewBox="0 0 1500 1500" fill="none" xmlns="http://www.w3.org/2000/svg">
<path fill-rule="evenodd" clip-rule="evenodd" d="M755.731 764.601C728.846 764.601 699.686 758.742 676.022 747.503L58.9782 452.788C4.1294 426.627 3.65651 380.625 44.5176 361.122L690.483 52.5416C723.828 36.6454 782.505 39.633 823.972 59.4743L1441.02 354.195C1496.01 380.484 1496.24 426.522 1455.49 445.977L809.511 754.435C795.051 761.251 776.05 764.601 755.731 764.601ZM755.731 1457.65C728.846 1457.65 699.686 1451.79 676.022 1440.56L58.9782 1145.84C3.94234 1119.59 3.7909 1073.62 44.5176 1054.17L213.627 973.387C219.124 970.749 225.456 970.749 230.959 973.387L640.285 1168.9C704.943 1199.74 789.192 1202.61 845.249 1175.83L1269.16 973.386C1274.65 970.749 1280.99 970.749 1286.49 973.386L1441.02 1047.24C1496.02 1073.55 1496.23 1119.58 1455.48 1139.02L809.511 1447.48C795.051 1454.43 776.05 1457.65 755.731 1457.65ZM755.731 1111.18C776.05 1111.18 795.051 1107.83 809.511 1100.91L1455.48 792.565C1496.22 773.121 1496.03 727.096 1441.02 700.777L1286.49 626.916C1280.99 624.29 1274.66 624.29 1269.16 626.916L845.249 829.364C789.192 856.138 704.944 853.267 640.285 822.432L230.959 626.799C225.456 624.168 219.124 624.168 213.627 626.799L44.5176 707.587C3.63947 727.101 4.14102 773.097 58.9782 799.369L676.022 1094.09C699.686 1105.32 728.846 1111.18 755.731 1111.18ZM757.411 641.382C764.356 641.382 1191.56 435.263 1236.41 413.835C1250.04 407.322 1240.12 386.641 1226.49 393.148L752.387 619.505C741.486 624.71 745.192 641.382 757.411 641.382ZM268.605 414.909C275.765 414.909 702.493 208.854 747.485 187.355C761.147 180.825 751.167 160.173 737.577 166.668L263.586 393.025C252.679 398.236 256.391 414.909 268.605 414.909Z" fill="#7CB900"/>
</svg>
